<?xml version="1.0" encoding="iso-8859-1"?>
<!-- Generator: Adobe Illustrator 19.0.0, SVG Export Plug-In . SVG Version: 6.00 Build 0)  -->
<svg version="1.1" id="Layer_1" xmlns="http://www.w3.org/2000/svg" xmlns:xlink="http://www.w3.org/1999/xlink" x="0px" y="0px"
	 viewBox="0 0 512 512" style="enable-background:new 0 0 512 512;" xml:space="preserve">
<polygon style="fill:#A2B1B7;" points="414.942,0 414.942,150.449 358.678,150.449 392.436,0 "/>
<rect x="347.429" style="fill:#C4D3D9;" width="45.011" height="150.449"/>
<polygon style="fill:#FBCFA3;" points="255.997,19.366 39.381,178.367 39.381,241.833 438.854,512 472.612,512 472.612,179.74 "/>
<polygon style="fill:#FFE2C4;" points="255.997,83.754 39.381,241.833 39.381,512 438.854,512 438.854,217.966 "/>
<path style="fill:#ED6350;" d="M505.099,182.881c4.178,3.072,6.901,8.009,6.901,13.592c0,9.322-7.557,16.879-16.879,16.879
	c-3.738,0-7.18-1.23-9.977-3.287L256,41.877l-13.503-16.558L256,0L505.099,182.881z"/>
<path style="fill:#F37C4A;" d="M6.901,182.88L256,0v41.877L26.857,210.065c-2.797,2.057-6.24,3.287-9.978,3.287
	C7.557,213.352,0,205.795,0,196.473C0,190.888,2.723,185.952,6.901,182.88z"/>
<path style="fill:#D1F1FF;" d="M255.997,115.903l-57.389,45.011c-1.103,4.512-1.688,9.216-1.688,14.066
	c0,2.869,0.203,5.683,0.608,8.44l58.469,50.637c32.633,0,59.077-26.455,59.077-59.077S288.63,115.903,255.997,115.903z"/>
<g>
	<path style="fill:#FFFFFF;" d="M197.527,183.42h83.529c-1.755,28.627-12.299,50.637-25.06,50.637
		C226.233,234.057,201.612,212.047,197.527,183.42z"/>
	<path style="fill:#FFFFFF;" d="M280.584,160.914h-81.976c6.313-25.836,29.617-45.011,57.389-45.011
		C267.902,115.903,277.894,135.078,280.584,160.914z"/>
</g>
<polygon style="fill:#A65A3A;" points="233.495,281.319 233.495,512 199.736,512 165.978,391.033 199.736,281.319 "/>
<rect x="92.835" y="281.319" style="fill:#D3754F;" width="106.901" height="230.681"/>
<circle style="fill:#AEE6FF;" cx="163.165" cy="346.022" r="8.44"/>
<polygon style="fill:#FFFFFF;" points="374.154,281.319 396.659,340.396 374.154,399.473 289.758,399.473 289.758,281.319 "/>
<polygon style="fill:#D1F1FF;" points="374.154,281.319 374.154,326.33 289.758,326.33 289.758,348.835 374.154,348.835 
	374.154,399.473 407.912,399.473 407.912,281.319 "/>
<g>
	<path style="fill:#D3754F;" d="M416.352,399.473h-16.879V289.758H298.198v109.714h-16.879V281.319c0-4.662,3.778-8.44,8.44-8.44
		h118.154c4.662,0,8.44,3.778,8.44,8.44V399.473z"/>
	<rect x="289.758" y="317.89" style="fill:#D3754F;" width="118.154" height="16.879"/>
</g>
<path style="fill:#F37C4A;" d="M419.165,407.912H278.505c-4.662,0-8.44-3.778-8.44-8.44s3.778-8.44,8.44-8.44h140.659
	c4.662,0,8.44,3.778,8.44,8.44S423.827,407.912,419.165,407.912z"/>
<g>
	<path style="fill:#D3754F;" d="M256,242.497c-37.229,0-67.516-30.288-67.516-67.516s30.288-67.516,67.516-67.516
		s67.517,30.288,67.517,67.516S293.229,242.497,256,242.497z M256,124.343c-27.921,0-50.637,22.716-50.637,50.637
		s22.716,50.637,50.637,50.637s50.637-22.716,50.637-50.637S283.921,124.343,256,124.343z"/>
	<rect x="198.611" y="152.475" style="fill:#D3754F;" width="114.778" height="16.879"/>
</g>
<g>
</g>
<g>
</g>
<g>
</g>
<g>
</g>
<g>
</g>
<g>
</g>
<g>
</g>
<g>
</g>
<g>
</g>
<g>
</g>
<g>
</g>
<g>
</g>
<g>
</g>
<g>
</g>
<g>
</g>
</svg>
