<?xml version="1.0" encoding="iso-8859-1"?>
<!-- Generator: Adobe Illustrator 19.0.0, SVG Export Plug-In . SVG Version: 6.00 Build 0)  -->
<svg version="1.1" id="Layer_1" xmlns="http://www.w3.org/2000/svg" xmlns:xlink="http://www.w3.org/1999/xlink" x="0px" y="0px"
	 viewBox="0 0 512 512" style="enable-background:new 0 0 512 512;" xml:space="preserve">
<g>
	<g>
		<path d="M169.813,112.64c-2.56-15.36-16.213-27.307-33.28-27.307c-12.8,0-24.747,7.68-29.867,18.773
			c22.187,5.12,38.4,24.747,38.4,48.64c3.413-0.853,6.827-2.56,9.387-4.267l-0.853-7.68c-0.853-8.533,2.56-16.213,7.68-22.187
			C163.84,116.053,166.4,114.347,169.813,112.64z"/>
	</g>
</g>
<g>
	<g>
		<path d="M225.28,134.827c-1.707-1.707-4.267-3.413-6.827-3.413L181.76,128h-0.853c-2.56,0-5.12,0.853-7.68,3.413
			s-3.413,5.12-3.413,8.533l3.413,36.693c0,2.56,1.707,5.12,3.413,6.827l56.32,56.32l48.64-48.64L225.28,134.827z M204.8,187.733
			c-2.56,0-4.267-0.853-5.973-2.56c-3.413-3.413-3.413-8.533,0-11.947l17.067-17.067c3.413-3.413,8.533-3.413,11.947,0
			s3.413,8.533,0,11.947l-17.067,17.067C209.067,186.88,207.36,187.733,204.8,187.733z M236.373,210.773
			c-1.707,1.707-3.413,2.56-5.973,2.56s-4.267-0.853-5.973-2.56c-3.413-3.413-3.413-8.533,0-11.947l17.067-17.067
			c3.413-3.413,8.533-3.413,11.947,0s3.413,8.533,0,11.947L236.373,210.773z"/>
	</g>
</g>
<g>
	<g>
		<path d="M110.933,209.067v-7.68c-2.56,1.707-5.12,1.707-8.533,2.56c-2.56,0.853-5.973,0.853-8.533,0.853
			c-2.56,0-5.973,0-8.533-0.853c0,0,0,0-0.853,0c-2.56-0.853-5.973-0.853-8.533-2.56v70.827l17.067,14.507l11.947-10.24l-7.68-5.973
			c-1.707-1.707-3.413-3.413-3.413-5.973c0-2.56,0.853-5.12,2.56-6.827l11.093-11.093L96.427,235.52
			c-3.413-3.413-3.413-8.533,0-11.947L110.933,209.067z"/>
	</g>
</g>
<g>
	<g>
		<path d="M94.72,150.187c-2.56-3.413-1.707-9.387,1.707-11.947s9.387-1.707,11.947,1.707c5.12,5.973,11.093,10.24,18.773,12.8
			c0-18.773-14.507-33.28-33.28-33.28c-18.773,0-34.133,15.36-34.133,34.133c0,11.093,5.12,20.48,13.653,27.307
			c1.707,0.853,2.56,1.707,4.267,2.56s3.413,1.707,5.12,1.707c0,0,0,0,0.853,0c6.827,2.56,13.653,2.56,20.48,0
			c1.707-0.853,3.413-0.853,5.12-1.707s3.413-1.707,4.267-2.56c4.267-3.413,7.68-6.827,9.387-11.947
			C111.787,166.4,101.547,159.573,94.72,150.187z"/>
	</g>
</g>
<g>
	<g>
		<path d="M477.867,34.133H290.133v-25.6c0-5.12-3.413-8.533-8.533-8.533h-51.2c-5.12,0-8.533,3.413-8.533,8.533v25.6H34.133
			C15.36,34.133,0,49.493,0,68.267v230.4C0,317.44,15.36,332.8,34.133,332.8h187.733v68.267c0,21.333-5.12,41.813-14.507,60.587
			c-6.827,2.56-11.093,8.533-11.093,16.213v25.6c0,5.12,3.413,8.533,8.533,8.533h102.4c5.12,0,8.533-3.413,8.533-8.533v-25.6
			c0-7.68-4.267-13.653-11.093-16.213c-9.387-18.773-14.507-39.253-14.507-60.587V332.8h187.733
			c18.773,0,34.133-15.36,34.133-34.133v-230.4C512,49.493,496.64,34.133,477.867,34.133z M238.933,17.067h34.133v17.067h-34.133
			V17.067z M226.987,460.8c6.827-16.213,11.093-33.28,11.947-51.2h34.133c0.853,17.92,5.12,34.987,11.947,51.2H226.987z
			 M238.933,392.533V332.8h34.133v59.733H238.933z M300.373,197.12l-60.587,60.587c-1.707,1.707-3.413,2.56-5.973,2.56
			s-4.267-0.853-5.973-2.56l-62.293-62.293c-5.12-5.12-7.68-11.093-8.533-17.92L156.16,166.4c-4.267,1.707-9.387,3.413-13.653,3.413
			c-2.56,8.533-7.68,15.36-14.507,21.333v22.187c0,2.56-0.853,4.267-2.56,5.973L114.347,230.4l11.093,11.093
			c3.413,3.413,3.413,8.533,0,11.947l-10.24,10.24l8.533,5.973c2.56,1.707,3.413,4.267,3.413,6.827c0,2.56-0.853,5.12-2.56,6.827
			l-25.6,22.187c-0.853,0.853-3.413,1.707-5.12,1.707s-4.267-0.853-5.973-1.707l-25.6-22.187c-1.707-2.56-2.56-4.267-2.56-6.827V192
			c-10.24-9.387-17.067-23.04-17.067-38.4c0-26.453,19.627-47.787,45.227-51.2c6.827-20.48,26.453-34.133,48.64-34.133
			c25.6,0,46.933,18.773,50.347,43.52l33.28,3.413c6.827,0.853,12.8,3.413,17.92,8.533l62.293,62.293
			C302.933,188.587,302.933,193.707,300.373,197.12z M392.533,247.467H332.8c-5.12,0-8.533-3.413-8.533-8.533
			s3.413-8.533,8.533-8.533h59.733c5.12,0,8.533,3.413,8.533,8.533S397.653,247.467,392.533,247.467z M324.267,187.733
			c0-5.12,3.413-8.533,8.533-8.533h34.133c5.12,0,8.533,3.413,8.533,8.533s-3.413,8.533-8.533,8.533H332.8
			C327.68,196.267,324.267,192.853,324.267,187.733z M469.333,247.467h-42.667c-5.12,0-8.533-3.413-8.533-8.533
			s3.413-8.533,8.533-8.533h42.667c5.12,0,8.533,3.413,8.533,8.533S474.453,247.467,469.333,247.467z M469.333,196.267h-68.267
			c-5.12,0-8.533-3.413-8.533-8.533s3.413-8.533,8.533-8.533h68.267c5.12,0,8.533,3.413,8.533,8.533
			S474.453,196.267,469.333,196.267z M469.333,145.067H332.8c-5.12,0-8.533-3.413-8.533-8.533S327.68,128,332.8,128h136.533
			c5.12,0,8.533,3.413,8.533,8.533S474.453,145.067,469.333,145.067z"/>
	</g>
</g>
<g>
</g>
<g>
</g>
<g>
</g>
<g>
</g>
<g>
</g>
<g>
</g>
<g>
</g>
<g>
</g>
<g>
</g>
<g>
</g>
<g>
</g>
<g>
</g>
<g>
</g>
<g>
</g>
<g>
</g>
</svg>
