<?xml version="1.0" encoding="iso-8859-1"?>
<!-- Generator: Adobe Illustrator 19.0.0, SVG Export Plug-In . SVG Version: 6.00 Build 0)  -->
<svg version="1.1" id="Layer_1" xmlns="http://www.w3.org/2000/svg" xmlns:xlink="http://www.w3.org/1999/xlink" x="0px" y="0px"
	 viewBox="0 0 512 512" style="enable-background:new 0 0 512 512;" xml:space="preserve">
<rect x="184" y="12" style="fill:#F2BF7E;" width="320.001" height="88.003"/>
<rect x="393.941" y="42.065" transform="matrix(-0.7071 0.7071 -0.7071 -0.7071 768.1875 -202.0648)" style="fill:#B3B3B3;" width="64.004" height="32"/>
<polygon style="fill:#AA603B;" points="312,99.999 184,99.999 184,12 400.001,12 "/>
<rect x="8" y="148.001" style="fill:#C5FFCA;" width="495.998" height="352.003"/>
<rect x="56" y="475.995" style="fill:#AA603B;" width="112.003" height="23.999"/>
<polyline style="fill:#F2BF7E;" points="63.879,475.996 63.879,268.391 160.415,268.391 160.415,475.996 "/>
<rect x="47.998" y="180.003" style="fill:#FFFFFF;" width="127.998" height="64.004"/>
<rect x="8" y="148.001" style="fill:#B3B3B3;" width="495.998" height="40"/>
<rect x="207.999" y="228.001" style="fill:#99C6E4;" width="255.997" height="207.999"/>
<rect x="272.003" y="299.998" style="fill:#FFFFFF;" width="127.998" height="64.004"/>
<polygon points="167.681,460.425 152.111,460.425 152.111,275.658 72.183,275.658 72.183,460.425 56.613,460.425 56.613,260.087 
	167.681,260.087 "/>
<rect x="80.488" y="380.497" width="15.57" height="15.57"/>
<path d="M472,443.999H200v-224h272V443.999z M216,427.999h240v-192H216V427.999z"/>
<path d="M408.001,371.999H264V292h144.001V371.999z M280,355.999h111.999V308H280V355.999z"/>
<rect x="296.397" y="324.444" width="79.928" height="15.57"/>
<path d="M184,252H40v-80h144V252z M56,235.999H168V188H56V235.999z"/>
<path d="M0,140v368h512V140H0z M160.415,492H63.879v-7.7h96.536V492z M496,180.16H191.555v15.57H496V492H175.985v-23.27H48.308V492
	H16V195.73h15.7v-15.57H16v-24.159h480V180.16z"/>
<g>
	<rect x="216.469" y="35.875" style="fill:#FFFFFF;" width="151.551" height="15.57"/>
	<rect x="216.469" y="59.748" style="fill:#FFFFFF;" width="151.551" height="15.57"/>
</g>
<path d="M512,4H176v103.999h32.164v24.411h15.57v-24.411h240.821v24.411h15.57v-24.411H512V4z M403.314,69.373l33.94-33.941
	l11.313,11.314l-33.939,33.939L403.314,69.373z M192,20h238.059l-49.372,49.373L403.314,92H192V20z M496,91.999h-70.058
	l45.255-45.255l-26.746-26.746H496L496,91.999L496,91.999z"/>
<rect x="72.184" y="204.033" width="15.57" height="15.57"/>
<rect x="104.363" y="204.033" width="15.57" height="15.57"/>
<rect x="135.503" y="204.033" width="16.608" height="15.57"/>
<g>
</g>
<g>
</g>
<g>
</g>
<g>
</g>
<g>
</g>
<g>
</g>
<g>
</g>
<g>
</g>
<g>
</g>
<g>
</g>
<g>
</g>
<g>
</g>
<g>
</g>
<g>
</g>
<g>
</g>
</svg>
