<?xml version="1.0" encoding="iso-8859-1"?>
<!-- Generator: Adobe Illustrator 19.0.0, SVG Export Plug-In . SVG Version: 6.00 Build 0)  -->
<svg version="1.1" id="Layer_1" xmlns="http://www.w3.org/2000/svg" xmlns:xlink="http://www.w3.org/1999/xlink" x="0px" y="0px"
	 viewBox="0 0 487.427 487.427" style="enable-background:new 0 0 487.427 487.427;" xml:space="preserve">
<g>
	<path d="M487.426,243.505L381.213,137.566v91.147h-122.5v-122.5h91.279L243.504,0L137.567,106.213h91.146v122.5h-122.5v-91.147
		L0,243.505l106.213,106.488v-91.279h122.5v122.5h-91.146l105.938,106.213l106.488-106.213h-91.279v-122.5h122.5v91.279
		L487.426,243.505z M243.559,42.427l33.875,33.787H209.86L243.559,42.427z M76.213,277.434L42.426,243.56l33.787-33.699V277.434z
		 M243.559,445l-33.699-33.787h67.574L243.559,445z M411.213,209.86L445,243.56l-33.787,33.875V209.86z"/>
</g>
<g>
</g>
<g>
</g>
<g>
</g>
<g>
</g>
<g>
</g>
<g>
</g>
<g>
</g>
<g>
</g>
<g>
</g>
<g>
</g>
<g>
</g>
<g>
</g>
<g>
</g>
<g>
</g>
<g>
</g>
</svg>
