<?xml version="1.0" encoding="iso-8859-1"?>
<!-- Generator: Adobe Illustrator 19.0.0, SVG Export Plug-In . SVG Version: 6.00 Build 0)  -->
<svg version="1.1" id="Layer_1" xmlns="http://www.w3.org/2000/svg" xmlns:xlink="http://www.w3.org/1999/xlink" x="0px" y="0px"
	 viewBox="0 0 487.42 487.42" style="enable-background:new 0 0 487.42 487.42;" xml:space="preserve">
<g>
	<path d="M487.42,243.505L381.207,137.566v91.147h-79.399c-5.439-21.053-22.048-37.663-43.101-43.101v-79.399h91.279L243.499,0
		L137.56,106.213h91.147v79.399c-21.053,5.439-37.663,22.048-43.101,43.101h-79.433l0.057-91.169L0,243.498l106.097,106.504
		l0.057-91.289h79.452c5.439,21.053,22.048,37.663,43.101,43.101v79.433l-91.17-0.057L243.492,487.42l106.504-106.096l-91.289-0.057
		v-79.452c21.053-5.439,37.663-22.048,43.101-43.101h79.399v91.279L487.42,243.505z M243.554,42.427l33.874,33.787h-67.573
		L243.554,42.427z M76.142,277.424l-33.728-33.858l33.771-33.684L76.142,277.424z M243.561,445.007l-33.684-33.771l67.541,0.042
		L243.561,445.007z M243.707,273.713c-16.542,0-30-13.458-30-30s13.458-30,30-30s30,13.458,30,30S260.249,273.713,243.707,273.713z
		 M411.207,209.86l33.787,33.699l-33.787,33.875V209.86z"/>
</g>
<g>
</g>
<g>
</g>
<g>
</g>
<g>
</g>
<g>
</g>
<g>
</g>
<g>
</g>
<g>
</g>
<g>
</g>
<g>
</g>
<g>
</g>
<g>
</g>
<g>
</g>
<g>
</g>
<g>
</g>
</svg>
